#!OML:ASF E:/inclinewalkrobotboard/Project1/Captureday1/Session1/subject1.ASF
:FULLY-SPECIFIED
:DEGREES
151
root 0 0 0 -0.3925024761537006 -2.027472073638152 -3.8797023517960523
lowerback 16.474843445343502 1.111993066134971 -0.11171385997242012
upperback 0.6974948842591364 1.4587780148476077 0.3305247410570743
thorax -8.563121582909336 0.6913077371753646 0.04918801643900017
lowerneck -7.468688325357491 -3.27504730939694 1.2714251809769026
upperneck -5.6790495511170604 -4.256794703036554 1.7704721021996532
head -0.6278920579744307 -2.2014085051442236 0.25060162724534585
rclavicle -3.788379952966496E-16 1.513487570393285E-17
rhumerus 12.06163435211191 0.45112051184205626 -39.48442039033445
rradius 118.64746432723277
rwrist -30.742854832465063
rhand -11.698520456582871 -36.453701581358466
rfingers 7.125019999999963
rthumb 14.386177906627417 -65.87246639885542
lclavicle -4.132650846532976E-16 -4.665755776960236E-16
lhumerus -43.28940809644014 -0.389707169765387 83.14423750378515
lradius 45.19593235454306
lwrist 1.9687340336988783
lhand -15.64370425538887 -12.019745433181848
lfingers 7.125019999999932
lthumb 10.501210391446653 17.111348495443927
rfemur -2.7910040673604923 1.039004140807358 5.5826598589375855
rtibia 8.357858195444779
rfoot -1.5733252874104373 -1.3618875921790616
rtoes 0.8009247681636704
lfemur -6.518771404304566 -3.5675936119418923 -12.24338920252809
ltibia 27.41519397869038
lfoot -19.252409521862695 7.9580139548547955
ltoes -43.26408619439876
152
root 0 0 0 -0.3920760937757395 -2.028038030816546 -3.878732073219148
lowerback 16.476767158558758 1.1088696884798537 -0.11361721452607698
upperback 0.6958866244306621 1.4543315630015021 0.3310892956336152
thorax -8.566279311801873 0.6891569236276197 0.05131532672491623
lowerneck -7.468125530229645 -3.271698696245446 1.276381477519334
upperneck -5.7006297574587315 -4.250990751661255 1.7635807437575866
head -0.6349767694580191 -2.199328264969503 0.24833266099758486
rclavicle -3.802179205255315E-16 1.5450572518605166E-17
rhumerus 12.056048139407892 0.458379542030956 -39.48589952087552
rradius 118.65264185265141
rwrist -30.745285661882757
rhand -11.694616116148543 -36.47015594708883
rfingers 7.125019999999963
rthumb 14.389591803060185 -65.88869141308152
lclavicle -4.1127345878423404E-16 -4.670663992553998E-16
lhumerus -43.29452792829743 -0.38972806484932687 83.14404098373083
lradius 45.20337789216232
lwrist 1.9676625844142879
lhand -15.639098942260805 -12.033682967256215
lfingers 7.125019999999932
lthumb 10.505545331166417 17.09768810148768
rfemur -2.7935038998790747 1.0396490256370392 5.586610690490135
rtibia 8.364941904979268
rfoot -1.5749011483703268 -1.363186665268652
rtoes 0.8010745465212965
lfemur -6.51810230601099 -3.5679074523648016 -12.242439061985786
ltibia 27.413886575274304
lfoot -19.25401312381926 7.959167033998012
ltoes -43.26844399264407
153
root 0 0 0 -0.3916230602724615 -2.0282246331032345 -3.878991125734521
lowerback 16.477826027859177 1.1083223377176796 -0.11389061700508885
upperback 0.6951650757119034 1.453516160132302 0.3310144801660182
thorax -8.567630245851625 0.68876226331067 0.05142498786467542
lowerneck -7.46707363494779 -3.2709442751953386 1.2780683196776166
upperneck -5.709518009746919 -4.249757258976692 1.7621209628642334
head -0.6382413668063602 -2.1989047418298853 0.24782735398000688
rclavicle -3.7995578261178015E-16 1.5638702444170372E-17
rhumerus 12.060492172431843 0.464152173576581 -39.480657269326564
rradius 118.66737818597964
rwrist -30.75207785294666
rhand -11.692436633751523 -36.48374000742231
rfingers 7.125019999999963
rthumb 14.391642669262659 -65.90176965129822
lclavicle -4.112729208311641E-16 -4.669394128592908E-16
lhumerus -43.29643780563016 -0.3899892957437787 83.14425569035612
lradius 45.20671289758529
lwrist 1.9670847177770518
lhand -15.63689799283987 -12.040590734980531
lfingers 7.125019999999933
lthumb 10.507532532630098 17.09122829895159
rfemur -2.796564980722975 1.0409135281324826 5.593104898610527
rtibia 8.373921978234236
rfoot -1.576926538989205 -1.3647917106636895
rtoes 0.8020302134553259
lfemur -6.517360893866131 -3.568458378604873 -12.24053846216971
ltibia 27.412186623886676
lfoot -19.257515711961418 7.962277976289551
ltoes -43.27865099878585
154
root 0 0 0 -0.3907839036676861 -2.0281570311874537 -3.8798852620168702
lowerback 16.476979357302103 1.1087869948844136 -0.1134096734328911
upperback 0.6950009460882505 1.4541280164100412 0.3307326910213422
thorax -8.567302540837254 0.6890789151047043 0.05079776892762611
lowerneck -7.464730735694435 -3.270909895847447 1.2785462060731843
upperneck -5.709309763106933 -4.25005884882624 1.7631234853689992
head -0.6387666006406088 -2.198950920487304 0.24811647544568483
rclavicle -3.797615259061871E-16 1.598611755999632E-17
rhumerus 12.067578850122814 0.4726445136396098 -39.4724883978305
rradius 118.68960251287123
rwrist -30.762543745769495
rhand -11.689267960222772 -36.50375532632826
rfingers 7.125019999999963
rthumb 14.394634922410962 -65.92122215741898
lclavicle -4.1111246851835103E-16 -4.665214167419828E-16
lhumerus -43.30055492124262 -0.38996053548345566 83.14505982749992
lradius 45.21275444393493
lwrist 1.9648421558622093
lhand -15.63206287178292 -12.055978789701145
lfingers 7.125019999999933
lthumb 10.51212386479241 17.076602413191484
rfemur -2.7961413744668455 1.0408229142457164 5.592401095496175
rtibia 8.372289399024863
rfoot -1.5769225526449397 -1.3646152258273778
rtoes 0.8018365316196561
lfemur -6.515930246418873 -3.5695345348108356 -12.237190565663782
ltibia 27.40904452278228
lfoot -19.263578961982024 7.96757647338079
ltoes -43.29621123781527
155
root 0 0 0 -0.39009995515246754 -2.0280443582052023 -3.880758683062564
lowerback 16.475819902393148 1.1094672956798686 -0.11281869228357122
upperback 0.6948468756265542 1.4550628759380135 0.33042564570933597
thorax -8.566770367537105 0.6895434942577805 0.05005652660850746
lowerneck -7.462945523783767 -3.2711614842342804 1.2785102159942991
upperneck -5.707104244823395 -4.250829642527553 1.7646124387887072
head -0.6384795397759335 -2.1991651120022375 0.24856888190685117
rclavicle -3.796476081468559E-16 1.6214803260471768E-17
rhumerus 12.072239875990348 0.47845713079696317 -39.46702629686911
rradius 118.70470810475601
rwrist -30.769589504651265
rhand -11.687077989189929 -36.51759403963793
rfingers 7.125019999999963
rthumb 14.396709650825992 -65.93463342272418
lclavicle -4.108385334540593E-16 -4.660982639081324E-16
lhumerus -43.3047522960674 -0.3898677206958391 83.14586200289101
lradius 45.21876089264109
lwrist 1.9625029374420553
lhand -15.627157248149512 -12.071554065775354
lfingers 7.125019999999933
lthumb 10.516792982949218 17.06180204806737
rfemur -2.7949024250136283 1.040381865223788 5.589942088374713
rtibia 8.368313835458414
rfoot -1.5763384237273508 -1.3640176894819418
rtoes 0.8013910346561537
lfemur -6.5143771382473314 -3.570643607799421 -12.233831353604431
ltibia 27.405741809334483
lfoot -19.26975920594521 7.972951088754739
ltoes -43.31399446965364
156
root 0 0 0 -0.3918807942337633 -2.0275102184342058 -3.8806829623485384
lowerback 16.475583579986573 1.112388191864501 -0.11141216699748868
upperback 0.6962710758795831 1.4592970292996963 0.3300261569519547
thorax -8.564716931171997 0.6915451400236141 0.048377317455311264
lowerneck -7.467714701924611 -3.275185284329111 1.272360707599757
upperneck -5.6875184166065225 -4.257158862397107 1.7708422986902495
head -0.6309879888874601 -2.201587025619884 0.2506700204493393
rclavicle -3.788837580307076E-16 1.531608125404492E-17
rhumerus 12.066629838370709 0.4551059728917384 -39.47923376980104
rradius 118.66037062616388
rwrist -30.74865744613941
rhand -11.697109208859802 -36.463816785673885
rfingers 7.125019999999963
rthumb 14.387514079667058 -65.882269841114
lclavicle -4.1255305170643863E-16 -4.659723549191995E-16
lhumerus -43.29610369839881 -0.3893168704040687 83.14543197169354
lradius 45.205000290885465
lwrist 1.9648885361251935
lhand -15.636046634039811 -12.043898572651845
lfingers 7.125019999999933
lthumb 10.508507179497332 17.088204513144817
rfemur -2.788470776878918 1.0380506264132223 5.5775668050455565
rtibia 8.350164670005015
rfoot -1.5719401129018564 -1.3606282876940967
rtoes 0.8001209471260275
lfemur -6.516997840562059 -3.568870571071132 -12.239563728194227
ltibia 27.411447452338507
lfoot -19.259467369352 7.964149013440457
ltoes -43.28437829265533
